<mxfile host="65bd71144e">
    <diagram id="NFu8U-3WasDIiH6uT1rk" name="Page-1">
        <mxGraphModel dx="1679" dy="-275" grid="1" gridSize="10" guides="1" tooltips="1" connect="1" arrows="1" fold="1" page="1" pageScale="1" pageWidth="827" pageHeight="1169" math="0" shadow="0">
            <root>
                <mxCell id="0"/>
                <mxCell id="1" parent="0"/>
                <mxCell id="8nZHfo79yYqbaUtWd1KK-6" value="source code &lt;br&gt;repository" style="shape=cylinder3;whiteSpace=wrap;html=1;boundedLbl=1;backgroundOutline=1;size=15;align=center;horizontal=1;verticalAlign=bottom;" parent="1" vertex="1">
                    <mxGeometry x="70" y="1405" width="130" height="140" as="geometry"/>
                </mxCell>
                <mxCell id="8nZHfo79yYqbaUtWd1KK-1" value="CI CD Pipeline" style="verticalAlign=top;align=left;spacingTop=8;spacingLeft=2;spacingRight=12;shape=cube;size=10;direction=south;fontStyle=4;html=1;fontSize=12;" parent="1" vertex="1">
                    <mxGeometry x="280" y="1385" width="180" height="190" as="geometry"/>
                </mxCell>
                <mxCell id="8nZHfo79yYqbaUtWd1KK-2" value="Deployable&lt;br&gt;artefact" style="shape=note;whiteSpace=wrap;html=1;backgroundOutline=1;darkOpacity=0.05;fontSize=12;" parent="1" vertex="1">
                    <mxGeometry x="520" y="1400" width="110" height="150" as="geometry"/>
                </mxCell>
                <mxCell id="8nZHfo79yYqbaUtWd1KK-3" value="" style="endArrow=classic;html=1;fontSize=12;exitX=0;exitY=0;exitDx=90;exitDy=0;exitPerimeter=0;entryX=0;entryY=0.5;entryDx=0;entryDy=0;entryPerimeter=0;dashed=1;" parent="1" source="8nZHfo79yYqbaUtWd1KK-1" target="8nZHfo79yYqbaUtWd1KK-2" edge="1">
                    <mxGeometry width="50" height="50" relative="1" as="geometry">
                        <mxPoint x="441.98" y="1184" as="sourcePoint"/>
                        <mxPoint x="560" y="1150" as="targetPoint"/>
                    </mxGeometry>
                </mxCell>
                <mxCell id="8nZHfo79yYqbaUtWd1KK-4" value="" style="shape=image;html=1;verticalAlign=bottom;verticalLabelPosition=bottom;labelBackgroundColor=#ffffff;imageAspect=0;aspect=fixed;image=https://cdn4.iconfinder.com/data/icons/socialcones/508/Github-128.png;fontSize=12;align=left;" parent="1" vertex="1">
                    <mxGeometry x="95" y="1420" width="60" height="60" as="geometry"/>
                </mxCell>
                <mxCell id="8nZHfo79yYqbaUtWd1KK-7" value="" style="endArrow=classic;startArrow=classic;html=1;entryX=0.489;entryY=0.994;entryDx=0;entryDy=0;entryPerimeter=0;exitX=1;exitY=0.5;exitDx=0;exitDy=0;exitPerimeter=0;" parent="1" source="8nZHfo79yYqbaUtWd1KK-6" target="8nZHfo79yYqbaUtWd1KK-1" edge="1">
                    <mxGeometry width="50" height="50" relative="1" as="geometry">
                        <mxPoint x="230" y="1523.5" as="sourcePoint"/>
                        <mxPoint x="280" y="1473.5" as="targetPoint"/>
                    </mxGeometry>
                </mxCell>
                <mxCell id="8nZHfo79yYqbaUtWd1KK-8" value="" style="aspect=fixed;pointerEvents=1;shadow=0;dashed=0;html=1;strokeColor=none;labelPosition=center;verticalLabelPosition=bottom;verticalAlign=top;align=center;fillColor=#00188D;shape=mxgraph.mscae.enterprise.tool;" parent="1" vertex="1">
                    <mxGeometry x="310" y="1440" width="88.89" height="80" as="geometry"/>
                </mxCell>
                <mxCell id="2" value="Cloud provider" style="verticalAlign=top;align=left;spacingTop=8;spacingLeft=2;spacingRight=12;shape=cube;size=10;direction=south;fontStyle=4;html=1;fontSize=12;" vertex="1" parent="1">
                    <mxGeometry x="960" y="1375" width="470" height="190" as="geometry"/>
                </mxCell>
                <mxCell id="3" value="VM1" style="verticalAlign=top;align=left;spacingTop=8;spacingLeft=2;spacingRight=12;shape=cube;size=10;direction=south;fontStyle=4;html=1;fontSize=12;" vertex="1" parent="1">
                    <mxGeometry x="1002" y="1415" width="120" height="120" as="geometry"/>
                </mxCell>
                <mxCell id="4" value="VM2" style="verticalAlign=top;align=left;spacingTop=8;spacingLeft=2;spacingRight=12;shape=cube;size=10;direction=south;fontStyle=4;html=1;fontSize=12;" vertex="1" parent="1">
                    <mxGeometry x="1280" y="1415" width="110" height="120" as="geometry"/>
                </mxCell>
                <mxCell id="5" value="Deployment machine" style="verticalAlign=top;align=left;spacingTop=8;spacingLeft=2;spacingRight=12;shape=cube;size=10;direction=south;fontStyle=4;html=1;fontSize=12;" vertex="1" parent="1">
                    <mxGeometry x="690" y="1375" width="180" height="240" as="geometry"/>
                </mxCell>
                <mxCell id="7" value="Cloud API" style="endArrow=classic;html=1;fontSize=12;exitX=1.018;exitY=0.56;exitDx=0;exitDy=0;exitPerimeter=0;entryX=0;entryY=0;entryDx=100;entryDy=470;entryPerimeter=0;dashed=1;" edge="1" parent="1" target="2">
                    <mxGeometry width="50" height="50" relative="1" as="geometry">
                        <mxPoint x="831.98" y="1509" as="sourcePoint"/>
                        <mxPoint x="1000" y="1485" as="targetPoint"/>
                    </mxGeometry>
                </mxCell>
                <mxCell id="8" value="internal &lt;br&gt;network" style="ellipse;shape=cloud;whiteSpace=wrap;html=1;fontSize=12;" vertex="1" parent="1">
                    <mxGeometry x="1140" y="1435" width="120" height="80" as="geometry"/>
                </mxCell>
                <mxCell id="9" value="" style="endArrow=none;html=1;fontSize=12;exitX=0;exitY=0;exitDx=55;exitDy=0;exitPerimeter=0;entryX=0.16;entryY=0.55;entryDx=0;entryDy=0;entryPerimeter=0;" edge="1" parent="1" source="3" target="8">
                    <mxGeometry width="50" height="50" relative="1" as="geometry">
                        <mxPoint x="1140" y="1425" as="sourcePoint"/>
                        <mxPoint x="1190" y="1375" as="targetPoint"/>
                    </mxGeometry>
                </mxCell>
                <mxCell id="10" value="" style="endArrow=none;html=1;fontSize=12;exitX=0;exitY=0;exitDx=65;exitDy=110;exitPerimeter=0;entryX=0.875;entryY=0.5;entryDx=0;entryDy=0;entryPerimeter=0;" edge="1" parent="1" source="4" target="8">
                    <mxGeometry width="50" height="50" relative="1" as="geometry">
                        <mxPoint x="1132" y="1480" as="sourcePoint"/>
                        <mxPoint x="1169.2" y="1489" as="targetPoint"/>
                    </mxGeometry>
                </mxCell>
                <mxCell id="12" value="" style="ellipse;whiteSpace=wrap;html=1;fillColor=none;" vertex="1" parent="1">
                    <mxGeometry x="900" y="1295" width="610" height="360" as="geometry"/>
                </mxCell>
                <mxCell id="13" value="Orchestrator" style="whiteSpace=wrap;html=1;aspect=fixed;" vertex="1" parent="1">
                    <mxGeometry x="740" y="1470" width="80" height="80" as="geometry"/>
                </mxCell>
                <mxCell id="14" value="" style="endArrow=classic;startArrow=classic;html=1;exitX=1;exitY=0.5;exitDx=0;exitDy=0;exitPerimeter=0;entryX=0;entryY=0.5;entryDx=0;entryDy=0;" edge="1" parent="1" target="13">
                    <mxGeometry width="50" height="50" relative="1" as="geometry">
                        <mxPoint x="630" y="1480" as="sourcePoint"/>
                        <mxPoint x="711" y="1483" as="targetPoint"/>
                    </mxGeometry>
                </mxCell>
            </root>
        </mxGraphModel>
    </diagram>
</mxfile>